<svg width="50" height="50" viewBox="0 0 50 50" fill="none" xmlns="http://www.w3.org/2000/svg">
<rect width="50" height="50" rx="25" fill="#E0A480" fill-opacity="0.2"/>
<path d="M25.4995 27.3985C23.6358 27.3985 22.1133 25.8848 22.1133 24.0123C22.1133 22.1398 23.6358 20.6348 25.4995 20.6348C27.3633 20.6348 28.8858 22.1485 28.8858 24.021C28.8858 25.8935 27.3633 27.3985 25.4995 27.3985ZM25.4995 21.9473C24.362 21.9473 23.4258 22.8748 23.4258 24.021C23.4258 25.1673 24.3533 26.0948 25.4995 26.0948C26.6458 26.0948 27.5733 25.1673 27.5733 24.021C27.5733 22.8748 26.637 21.9473 25.4995 21.9473Z" fill="#292D32"/>
<path d="M25.5005 34.915C24.2055 34.915 22.9017 34.425 21.8867 33.4538C19.3055 30.9688 16.453 27.005 17.5292 22.2888C18.5005 18.01 22.2367 16.0938 25.5005 16.0938C25.5005 16.0938 25.5005 16.0938 25.5092 16.0938C28.773 16.0938 32.5092 18.01 33.4805 22.2975C34.548 27.0138 31.6955 30.9688 29.1142 33.4538C28.0992 34.425 26.7955 34.915 25.5005 34.915ZM25.5005 17.4063C22.9542 17.4063 19.6817 18.7625 18.8155 22.5775C17.8705 26.6988 20.4605 30.2513 22.8055 32.5C24.3192 33.9613 26.6905 33.9613 28.2042 32.5C30.5405 30.2513 33.1305 26.6988 32.203 22.5775C31.328 18.7625 28.0467 17.4063 25.5005 17.4063Z" fill="#292D32"/>
</svg>
