<svg width="50" height="50" viewBox="0 0 50 50" fill="none" xmlns="http://www.w3.org/2000/svg">
<rect width="50" height="50" rx="25" fill="#E0A480" fill-opacity="0.2"/>
<path d="M29.875 33.5938H21.125C17.9312 33.5938 16.0938 31.7563 16.0938 28.5625V22.4375C16.0938 19.2437 17.9312 17.4062 21.125 17.4062H29.875C33.0688 17.4062 34.9062 19.2437 34.9062 22.4375V28.5625C34.9062 31.7563 33.0688 33.5938 29.875 33.5938ZM21.125 18.7188C18.6225 18.7188 17.4062 19.935 17.4062 22.4375V28.5625C17.4062 31.065 18.6225 32.2812 21.125 32.2812H29.875C32.3775 32.2812 33.5938 31.065 33.5938 28.5625V22.4375C33.5938 19.935 32.3775 18.7188 29.875 18.7188H21.125Z" fill="#232323"/>
<path d="M25.4994 26.2615C24.7644 26.2615 24.0207 26.034 23.4519 25.5702L20.7132 23.3827C20.4332 23.1552 20.3807 22.744 20.6082 22.464C20.8357 22.184 21.2469 22.1315 21.5269 22.359L24.2657 24.5465C24.9307 25.0802 26.0594 25.0802 26.7244 24.5465L29.4632 22.359C29.7432 22.1315 30.1632 22.1752 30.3819 22.464C30.6094 22.744 30.5657 23.164 30.2769 23.3827L27.5382 25.5702C26.9782 26.034 26.2344 26.2615 25.4994 26.2615Z" fill="#232323"/>
</svg>
