<svg width="50" height="50" viewBox="0 0 50 50" fill="none" xmlns="http://www.w3.org/2000/svg">
<rect width="50" height="50" rx="25" fill="#E0A480" fill-opacity="0.2"/>
<path d="M33.2413 27.9985L29.3768 26.2668L29.3661 26.2619C29.1655 26.1761 28.9467 26.1417 28.7294 26.1617C28.5121 26.1818 28.3033 26.2557 28.1217 26.3767C28.1004 26.3909 28.0798 26.4062 28.0602 26.4227L26.0636 28.1248C24.7986 27.5104 23.4927 26.2143 22.8783 24.9658L24.5829 22.9388C24.5993 22.9183 24.6149 22.8978 24.6297 22.8757C24.7481 22.6946 24.82 22.4871 24.8389 22.2716C24.8578 22.056 24.8231 21.8392 24.7379 21.6403V21.6304L23.0013 17.7594C22.8887 17.4995 22.6951 17.2831 22.4494 17.1424C22.2037 17.0016 21.9191 16.9441 21.638 16.9784C20.5264 17.1247 19.5061 17.6706 18.7676 18.5141C18.0292 19.3577 17.623 20.4412 17.625 21.5623C17.625 28.0756 22.9242 33.3748 29.4375 33.3748C30.5586 33.3768 31.6422 32.9707 32.4857 32.2322C33.3293 31.4937 33.8751 30.4734 34.0214 29.3619C34.0558 29.0809 33.9984 28.7963 33.8578 28.5506C33.7172 28.3049 33.501 28.1112 33.2413 27.9985ZM29.4375 32.0623C26.6537 32.0593 23.9847 30.9521 22.0162 28.9836C20.0478 27.0151 18.9405 24.3462 18.9375 21.5623C18.9344 20.7613 19.223 19.9865 19.7494 19.3827C20.2758 18.7789 21.004 18.3873 21.7979 18.2811C21.7976 18.2844 21.7976 18.2877 21.7979 18.2909L23.5206 22.1464L21.825 24.1758C21.8078 24.1957 21.7922 24.2168 21.7782 24.239C21.6548 24.4284 21.5824 24.6465 21.568 24.8722C21.5536 25.0978 21.5978 25.3233 21.6962 25.5269C22.4394 27.0469 23.9709 28.567 25.5074 29.3094C25.7124 29.4069 25.9393 29.4495 26.1657 29.4331C26.3922 29.4167 26.6105 29.3419 26.7994 29.2158C26.8204 29.2017 26.8407 29.1863 26.8601 29.1699L28.8543 27.4686L32.7097 29.1953C32.7097 29.1953 32.7163 29.1953 32.7188 29.1953C32.6138 29.9904 32.2229 30.7201 31.6189 31.2478C31.015 31.7755 30.2395 32.065 29.4375 32.0623Z" fill="#232323"/>
</svg>
