<svg width="50" height="50" viewBox="0 0 50 50" fill="none" xmlns="http://www.w3.org/2000/svg">
<rect width="50" height="50" rx="25" fill="white"/>
<path d="M33.8472 28.6054L29.4306 26.6264L29.4184 26.6207C29.1892 26.5227 28.939 26.4833 28.6907 26.5062C28.4424 26.5292 28.2037 26.6136 27.9963 26.752C27.9718 26.7681 27.9484 26.7857 27.9259 26.8045L25.6441 28.7498C24.1984 28.0476 22.7059 26.5664 22.0038 25.1395L23.9519 22.8229C23.9706 22.7995 23.9884 22.7761 24.0053 22.7507C24.1407 22.5438 24.2229 22.3067 24.2445 22.0603C24.2661 21.814 24.2264 21.5662 24.1291 21.3389V21.3276L22.1444 16.9036C22.0157 16.6066 21.7944 16.3593 21.5136 16.1984C21.2328 16.0376 20.9075 15.9718 20.5863 16.0111C19.3159 16.1782 18.1499 16.8021 17.3059 17.7661C16.4619 18.7302 15.9977 19.9685 16 21.2498C16 28.6936 22.0563 34.7498 29.5 34.7498C30.7813 34.7521 32.0196 34.2879 32.9837 33.4439C33.9477 32.6 34.5716 31.4339 34.7388 30.1636C34.7781 29.8424 34.7125 29.5172 34.5518 29.2364C34.3911 28.9556 34.144 28.7343 33.8472 28.6054ZM29.5 33.2498C26.3185 33.2463 23.2682 31.9809 21.0186 29.7313C18.7689 27.4816 17.5035 24.4313 17.5 21.2498C17.4965 20.3343 17.8263 19.4489 18.4279 18.7588C19.0295 18.0687 19.8617 17.6212 20.7691 17.4998C20.7687 17.5036 20.7687 17.5073 20.7691 17.5111L22.7378 21.9173L20.8 24.2367C20.7803 24.2593 20.7625 24.2835 20.7466 24.3089C20.6055 24.5254 20.5227 24.7746 20.5063 25.0325C20.4899 25.2904 20.5403 25.5481 20.6528 25.7807C21.5022 27.5179 23.2525 29.2551 25.0084 30.1036C25.2428 30.215 25.502 30.2637 25.7608 30.245C26.0196 30.2262 26.2692 30.1407 26.485 29.9967C26.5091 29.9805 26.5322 29.9629 26.5544 29.9442L28.8334 27.9998L33.2397 29.9732C33.2397 29.9732 33.2472 29.9732 33.25 29.9732C33.1301 30.8819 32.6833 31.7158 31.9931 32.3189C31.3028 32.922 30.4166 33.2529 29.5 33.2498Z" fill="#0A0A0A"/>
</svg>
