<svg width="28" height="28" viewBox="0 0 28 28" fill="none" xmlns="http://www.w3.org/2000/svg">
<path d="M0 14C0 6.26801 6.26801 0 14 0C21.732 0 28 6.26801 28 14C28 21.732 21.732 28 14 28C6.26801 28 0 21.732 0 14Z" fill="#054042"/>
<path d="M11.343 14.6406C11.5224 18.613 13.2651 20.7486 14.0339 20.7486C14.8027 20.7486 16.5198 18.613 16.6907 14.6406H11.343Z" fill="white"/>
<path d="M16.6565 13.358C16.4771 9.35149 14.6575 7.25 14.0339 7.25C13.4103 7.25 11.5224 9.38567 11.343 13.358H16.6565Z" fill="white"/>
<path d="M17.9384 13.3571H20.8002C20.676 12.0571 20.182 10.8199 19.3766 9.79188C18.5712 8.7639 17.4881 7.98821 16.2555 7.55664C17.3268 9.3041 17.9081 11.3076 17.9384 13.3571Z" fill="white"/>
<path d="M10.0703 13.3571C10.1084 11.3052 10.6986 9.30152 11.7789 7.55664C10.5399 7.98285 9.44962 8.75621 8.63781 9.7846C7.826 10.813 7.32692 12.0531 7.20001 13.3571H10.0703Z" fill="white"/>
<path d="M10.0703 14.6406H7.20001C7.32329 15.9432 7.81787 17.1829 8.625 18.2127C9.43212 19.2424 10.5179 20.0188 11.7533 20.4496C10.6832 18.6985 10.1021 16.6926 10.0703 14.6406Z" fill="white"/>
<path d="M17.9382 14.6406C17.8987 16.695 17.3087 18.7011 16.2297 20.4496C17.4635 20.0175 18.5474 19.2405 19.3529 18.2108C20.1585 17.1812 20.6518 15.9422 20.7744 14.6406H17.9382Z" fill="white"/>
</svg>
