<svg width="34" height="34" viewBox="0 0 34 34" fill="none" xmlns="http://www.w3.org/2000/svg">
<g filter="url(#filter0_d_1428_28)">
<path d="M2.57141 15.2861C2.57141 7.55415 8.83943 1.28613 16.5714 1.28613C24.3034 1.28613 30.5714 7.55415 30.5714 15.2861C30.5714 23.0181 24.3034 29.2861 16.5714 29.2861C8.83943 29.2861 2.57141 23.0181 2.57141 15.2861Z" fill="#054042" shape-rendering="crispEdges"/>
<path d="M16.5714 1.53613C24.1653 1.53613 30.3214 7.69222 30.3214 15.2861C30.3214 22.88 24.1653 29.0361 16.5714 29.0361C8.9775 29.0361 2.82141 22.88 2.82141 15.2861C2.82141 7.69222 8.9775 1.53613 16.5714 1.53613Z" stroke="#F4F7FB" stroke-width="0.5" shape-rendering="crispEdges"/>
<path d="M9.77142 11.7216C9.77142 10.8026 10.6113 10.0576 11.6473 10.0576H21.4956C22.5316 10.0576 23.3714 10.8026 23.3714 11.7216V18.7936C23.3714 19.7126 22.5316 20.4576 21.4956 20.4576H11.6473C10.6113 20.4576 9.77142 19.7126 9.77142 18.7936V11.7216Z" fill="white"/>
<path fill-rule="evenodd" clip-rule="evenodd" d="M9.948 10.295C10.2054 10.004 10.65 9.97678 10.941 10.2342L16.5714 15.215L22.2019 10.2342C22.4929 9.97678 22.9375 10.004 23.1949 10.295C23.4523 10.586 23.4251 11.0305 23.1341 11.288L17.0375 16.6811C16.7714 16.9165 16.3715 16.9165 16.1053 16.6811L10.0088 11.288C9.71781 11.0305 9.69059 10.586 9.948 10.295Z" fill="#054042"/>
</g>
<defs>
<filter id="filter0_d_1428_28" x="-1.74046e-05" y="0.000418544" width="33.1429" height="33.1429" filterUnits="userSpaceOnUse" color-interpolation-filters="sRGB">
<feFlood flood-opacity="0" result="BackgroundImageFix"/>
<feColorMatrix in="SourceAlpha" type="matrix" values="0 0 0 0 0 0 0 0 0 0 0 0 0 0 0 0 0 0 127 0" result="hardAlpha"/>
<feOffset dy="1.28571"/>
<feGaussianBlur stdDeviation="1.28571"/>
<feComposite in2="hardAlpha" operator="out"/>
<feColorMatrix type="matrix" values="0 0 0 0 0.333333 0 0 0 0 0.423529 0 0 0 0 0.529412 0 0 0 0.13 0"/>
<feBlend mode="normal" in2="BackgroundImageFix" result="effect1_dropShadow_1428_28"/>
<feBlend mode="normal" in="SourceGraphic" in2="effect1_dropShadow_1428_28" result="shape"/>
</filter>
</defs>
</svg>
