<svg width="28" height="28" viewBox="0 0 28 28" fill="none" xmlns="http://www.w3.org/2000/svg">
<path d="M0 14C0 6.26801 6.26801 0 14 0C21.732 0 28 6.26801 28 14C28 21.732 21.732 28 14 28C6.26801 28 0 21.732 0 14Z" fill="#E0A480"/>
<path d="M11.3429 14.6406C11.5223 18.613 13.265 20.7486 14.0338 20.7486C14.8027 20.7486 16.5197 18.613 16.6906 14.6406H11.3429Z" fill="white"/>
<path d="M16.6564 13.358C16.477 9.35149 14.6574 7.25 14.0338 7.25C13.4102 7.25 11.5223 9.38567 11.3429 13.358H16.6564Z" fill="white"/>
<path d="M17.9383 13.3571H20.8001C20.6759 12.0571 20.1819 10.8199 19.3765 9.79188C18.571 8.7639 17.4879 7.98821 16.2554 7.55664C17.3266 9.3041 17.9079 11.3076 17.9383 13.3571Z" fill="white"/>
<path d="M10.0703 13.3571C10.1083 11.3052 10.6985 9.30152 11.7788 7.55664C10.5399 7.98285 9.44956 8.75621 8.63775 9.7846C7.82594 10.813 7.32686 12.0531 7.19995 13.3571H10.0703Z" fill="white"/>
<path d="M10.0703 14.6406H7.19995C7.32323 15.9432 7.81781 17.1829 8.62494 18.2127C9.43206 19.2424 10.5178 20.0188 11.7532 20.4496C10.6831 18.6985 10.102 16.6926 10.0703 14.6406Z" fill="white"/>
<path d="M17.9381 14.6406C17.8987 16.695 17.3087 18.7011 16.2296 20.4496C17.4634 20.0175 18.5473 19.2405 19.3529 18.2108C20.1584 17.1812 20.6517 15.9422 20.7743 14.6406H17.9381Z" fill="white"/>
</svg>
