<svg width="287" height="300" viewBox="0 0 287 300" fill="none" xmlns="http://www.w3.org/2000/svg">
<path d="M206.829 -11.4897C212.081 -17.896 211.146 -27.3473 204.739 -32.5997C198.333 -37.8521 188.882 -36.9167 183.629 -30.5103L195.229 -21L206.829 -11.4897ZM15 198.824L3.40029 189.314C-1.16727 194.885 -1.12929 202.916 3.49075 208.444C8.1108 213.972 16.008 215.434 22.3011 211.928L15 198.824ZM258.938 62.9024L269.879 73.1637C274.936 67.7714 275.311 59.4984 270.761 53.6714C266.212 47.8443 258.095 46.2009 251.637 49.7992L258.938 62.9024ZM15 323L4.05897 312.739C-1.03582 318.171 -1.3733 326.519 3.26634 332.345C7.90597 338.17 16.1175 339.71 22.5522 335.96L15 323ZM326 141.771L337.49 151.414C342.177 145.829 342.169 137.682 337.472 132.106C332.774 126.53 324.747 125.14 318.448 128.811L326 141.771ZM195.229 -21L183.629 -30.5103L3.40029 189.314L15 198.824L26.5997 208.335L206.829 -11.4897L195.229 -21ZM15 198.824L22.3011 211.928L266.239 76.0056L258.938 62.9024L251.637 49.7992L7.69891 185.721L15 198.824ZM258.938 62.9024L247.997 52.6412L4.05897 312.739L15 323L25.941 333.261L269.879 73.1637L258.938 62.9024ZM15 323L22.5522 335.96L333.552 154.731L326 141.771L318.448 128.811L7.44776 310.04L15 323ZM326 141.771L314.51 132.128L173.68 299.933L185.17 309.576L196.66 319.218L337.49 151.414L326 141.771Z" fill="#E0A480" fill-opacity="0.2"/>
</svg>
